; Drill file
; Format: 3.3 (000.000)
M48
METRIC
T01C0.6
T02C0.9
T03C1.0
T04C2.1
T05C3.2
%
G05
G90
T01
X045240Y007630
X045080Y007630
X044920Y007630
X044760Y007630
X044600Y007630
X044440Y007630
X044280Y007630
X044120Y007630
X043960Y007630
X043810Y007630
X043650Y007630
X043490Y007630
X043330Y007630
X039520Y009530
X039520Y009690
X039520Y009850
X039520Y010010
X039520Y010170
X039520Y010330
X039520Y010480
X039520Y010640
X039520Y010800
X039520Y010960
X039520Y011120
X039520Y011280
X039520Y011440
X043330Y013660
X043490Y013660
X043650Y013660
X043810Y013660
X043960Y013660
X044120Y013660
X044280Y013660
X044440Y013660
X044600Y013660
X044760Y013660
X044920Y013660
X045080Y013660
X045240Y013660
X050630Y017470
X045870Y021600
X043650Y021600
X037300Y017470
X037930Y032080
X040160Y032080
X044600Y035880
X043330Y037160
X045870Y037160
X021740Y030490
X018880Y028900
X010310Y028900
X021740Y011440
T02
X032540Y028900
X032540Y031440
X030000Y031440
X030000Y028900
X027460Y028900
X027460Y031440
X015390Y026680
X010310Y026680
X010310Y010480
X012850Y010480
X015390Y010480
T03
X052860Y017470
X052860Y020010
X052860Y022550
X052860Y026080
X052860Y031080
T04
X018880Y018580
X006820Y018580
T05
X053080Y007890
X053080Y036890
X005080Y007890
M30
