%FSLAX34Y34*%
%MOMM*%
%LNCOPPER_BOTTOM*%
G71*
G01*
%ADD10C, 2.200*%
%ADD11C, 2.300*%
%ADD12C, 1.800*%
%ADD13R, 0.800X2.600*%
%ADD14R, 1.700X1.800*%
%ADD15R, 1.800X1.500*%
%ADD16R, 1.500X1.800*%
%ADD17C, 1.400*%
%ADD18R, 1.200X1.500*%
%ADD19R, 1.500X1.200*%
%ADD20C, 2.000*%
%ADD21C, 2.500*%
%ADD22C, 2.000*%
%ADD23C, 1.600*%
%ADD24C, 1.200*%
%ADD25C, 0.500*%
%ADD26C, 0.800*%
%ADD27C, 0.600*%
%ADD28C, 0.400*%
%ADD29C, 0.238*%
%ADD30C, 4.200*%
%ADD31C, 0.200*%
%LPD*%
X446000Y136600D02*
G54D10*
D03*
X439650Y136600D02*
G54D10*
D03*
X449175Y136600D02*
G54D10*
D03*
X436475Y136600D02*
G54D10*
D03*
X452350Y136600D02*
G54D10*
D03*
X433300Y136600D02*
G54D10*
D03*
X450762Y136600D02*
G54D10*
D03*
X447588Y136600D02*
G54D10*
D03*
X434888Y136600D02*
G54D10*
D03*
X444412Y136600D02*
G54D10*
D03*
X441238Y136600D02*
G54D10*
D03*
X438062Y136600D02*
G54D10*
D03*
X446000Y76275D02*
G54D10*
D03*
X439650Y76275D02*
G54D10*
D03*
X449175Y76275D02*
G54D10*
D03*
X436475Y76275D02*
G54D10*
D03*
X452350Y76275D02*
G54D10*
D03*
X433300Y76275D02*
G54D10*
D03*
X450762Y76275D02*
G54D10*
D03*
X447588Y76275D02*
G54D10*
D03*
X434888Y76275D02*
G54D10*
D03*
X444412Y76275D02*
G54D10*
D03*
X441238Y76275D02*
G54D10*
D03*
X438062Y76275D02*
G54D10*
D03*
X395200Y108025D02*
G54D10*
D03*
X395200Y101675D02*
G54D10*
D03*
X395200Y111200D02*
G54D10*
D03*
X395200Y98500D02*
G54D10*
D03*
X395200Y114375D02*
G54D10*
D03*
X395200Y95325D02*
G54D10*
D03*
X395200Y112788D02*
G54D10*
D03*
X395200Y109612D02*
G54D10*
D03*
X395200Y96912D02*
G54D10*
D03*
X395200Y106438D02*
G54D10*
D03*
X395200Y103262D02*
G54D10*
D03*
X395200Y100088D02*
G54D10*
D03*
G54D11*
X454325Y136600D02*
X431325Y136600D01*
G54D11*
X454325Y76275D02*
X431325Y76275D01*
G54D11*
X395200Y116350D02*
X395200Y93350D01*
X103100Y104850D02*
G54D12*
D03*
X128500Y104850D02*
G54D12*
D03*
X153900Y104850D02*
G54D12*
D03*
X103100Y266775D02*
G54D12*
D03*
X153900Y266775D02*
G54D12*
D03*
G36*
X51675Y178964D02*
X61327Y169312D01*
X75023Y169312D01*
X84675Y178964D01*
X84675Y192660D01*
X75023Y202312D01*
X61327Y202312D01*
X51675Y192660D01*
X51675Y178964D01*
G37*
G36*
X172325Y178964D02*
X181977Y169312D01*
X195673Y169312D01*
X205325Y178964D01*
X205325Y192660D01*
X195673Y202312D01*
X181977Y202312D01*
X172325Y192660D01*
X172325Y178964D01*
G37*
X236450Y206450D02*
G54D13*
D03*
X249150Y206450D02*
G54D13*
D03*
X261850Y206450D02*
G54D13*
D03*
X274550Y206450D02*
G54D13*
D03*
X287250Y206450D02*
G54D13*
D03*
X299950Y206450D02*
G54D13*
D03*
X312650Y206450D02*
G54D13*
D03*
X325350Y206450D02*
G54D13*
D03*
X338050Y206450D02*
G54D13*
D03*
X350750Y206450D02*
G54D13*
D03*
X350750Y114450D02*
G54D13*
D03*
X338050Y114450D02*
G54D13*
D03*
X325350Y114450D02*
G54D13*
D03*
X312650Y114450D02*
G54D13*
D03*
X299950Y114450D02*
G54D13*
D03*
X287250Y114450D02*
G54D13*
D03*
X274550Y114450D02*
G54D13*
D03*
X261850Y114450D02*
G54D13*
D03*
X249150Y114450D02*
G54D13*
D03*
X236450Y114450D02*
G54D13*
D03*
X366625Y342975D02*
G54D14*
D03*
X325350Y342975D02*
G54D14*
D03*
X182475Y127075D02*
G54D15*
D03*
X182475Y156443D02*
G54D15*
D03*
X74525Y127075D02*
G54D15*
D03*
X74525Y156443D02*
G54D15*
D03*
X206605Y238200D02*
G54D16*
D03*
X235973Y238200D02*
G54D16*
D03*
X220575Y269950D02*
G54D16*
D03*
X249943Y269950D02*
G54D16*
D03*
X312650Y238200D02*
G54D16*
D03*
X342018Y238200D02*
G54D16*
D03*
X541250Y142950D02*
G54D16*
D03*
X511882Y142950D02*
G54D16*
D03*
X433300Y371550D02*
G54D17*
D03*
X446000Y358850D02*
G54D17*
D03*
X458700Y371550D02*
G54D17*
D03*
X458700Y333450D02*
G54D18*
D03*
X438100Y333450D02*
G54D18*
D03*
X411075Y352500D02*
G54D19*
D03*
X411075Y373100D02*
G54D19*
D03*
X401550Y289000D02*
G54D18*
D03*
X380950Y289000D02*
G54D18*
D03*
X249150Y295350D02*
G54D19*
D03*
X249150Y315950D02*
G54D19*
D03*
X139612Y130250D02*
G54D18*
D03*
X160212Y130250D02*
G54D18*
D03*
X96750Y130250D02*
G54D18*
D03*
X117350Y130250D02*
G54D18*
D03*
X528550Y174700D02*
G54D20*
D03*
X528550Y200100D02*
G54D20*
D03*
X528550Y225500D02*
G54D20*
D03*
G36*
X516050Y323250D02*
X516050Y298250D01*
X541050Y298250D01*
X541050Y323250D01*
X516050Y323250D01*
G37*
X528550Y260750D02*
G54D21*
D03*
G36*
X335350Y279000D02*
X335350Y299000D01*
X315350Y299000D01*
X315350Y279000D01*
X335350Y279000D01*
G37*
X325350Y314400D02*
G54D22*
D03*
X299950Y289000D02*
G54D22*
D03*
X299950Y314400D02*
G54D22*
D03*
X274550Y289000D02*
G54D22*
D03*
X274550Y314400D02*
G54D22*
D03*
G36*
X428475Y207975D02*
X444475Y207975D01*
X444475Y223975D01*
X428475Y223975D01*
X428475Y207975D01*
G37*
X458700Y215975D02*
G54D23*
D03*
G36*
X409550Y328750D02*
X393550Y328750D01*
X393550Y312750D01*
X409550Y312750D01*
X409550Y328750D01*
G37*
X379325Y320750D02*
G54D23*
D03*
G54D24*
X442825Y76275D02*
X442825Y114375D01*
X538075Y114375D01*
X550775Y127075D01*
X550775Y215975D01*
X541250Y225500D01*
X528550Y225500D01*
G54D24*
X528550Y260750D02*
X506325Y238525D01*
X506325Y209625D01*
X515850Y200100D01*
X528550Y200100D01*
G54D24*
X528550Y310750D02*
X487275Y269475D01*
X487275Y151050D01*
X472825Y136600D01*
X442825Y136600D01*
X506325Y174700D02*
G54D23*
D03*
X372975Y174700D02*
G54D23*
D03*
G54D25*
X528550Y174700D02*
X506325Y174700D01*
G54D25*
X506325Y174700D02*
X506325Y165175D01*
X512675Y158825D01*
X512675Y143743D01*
X511882Y142950D01*
G54D26*
X458700Y215975D02*
X458700Y200100D01*
X442825Y184225D01*
X442825Y136600D01*
G54D26*
X436475Y215975D02*
X411075Y190575D01*
X411075Y130250D01*
X426950Y114375D01*
X442825Y114375D01*
G54D27*
X458700Y244550D02*
X458700Y215975D01*
G54D27*
X458700Y371550D02*
X458700Y244550D01*
G54D27*
X436475Y215975D02*
X436505Y318085D01*
X436475Y349325D01*
X446000Y358850D01*
G54D27*
X433300Y371550D02*
X412625Y371550D01*
X411075Y373100D01*
G54D27*
X446000Y358850D02*
X417425Y358850D01*
X411075Y352500D01*
G54D27*
X411075Y352500D02*
X411075Y330275D01*
X401550Y320750D01*
G54D27*
X411075Y373100D02*
X396750Y373100D01*
X366625Y342975D01*
G54D27*
X366625Y346150D02*
X366625Y342975D01*
X379325Y330275D01*
X379325Y320750D01*
G54D27*
X325350Y314400D02*
X325350Y342975D01*
G54D27*
X401550Y320750D02*
X401550Y289000D01*
G54D27*
X380950Y289000D02*
X380950Y303250D01*
X379325Y304875D01*
X379325Y320750D01*
G54D27*
X401550Y289000D02*
X401550Y228675D01*
X398375Y225500D01*
X398375Y162000D01*
X379325Y142950D01*
X350750Y142950D01*
X350750Y123900D01*
G54D27*
X380950Y289000D02*
X380950Y265150D01*
X388850Y257250D01*
X388850Y168350D01*
X376150Y155650D01*
X360275Y155650D01*
X338050Y177875D01*
X236450Y177875D01*
X236450Y206450D01*
G54D27*
X312650Y238200D02*
X312650Y206450D01*
G54D27*
X372975Y174700D02*
X372975Y231850D01*
X366625Y238200D01*
X342018Y238200D01*
G54D28*
X325350Y289000D02*
X325350Y269950D01*
X319000Y263600D01*
X277725Y263600D01*
X261850Y247725D01*
X261850Y206450D01*
G54D28*
X299950Y289000D02*
X299950Y276300D01*
X293600Y269950D01*
X274550Y269950D01*
X249150Y244550D01*
X249150Y206450D01*
G54D28*
X299950Y314400D02*
X299950Y349325D01*
X309475Y358850D01*
X334875Y358850D01*
X344400Y349325D01*
X344400Y266775D01*
X334875Y257250D01*
X280900Y257250D01*
X274550Y250900D01*
X274550Y206450D01*
X217400Y114375D02*
G54D23*
D03*
X217400Y304875D02*
G54D23*
D03*
G54D28*
X158625Y130250D02*
X158625Y122275D01*
X153900Y117550D01*
X153900Y104850D01*
G54D28*
X99925Y130250D02*
X99925Y120725D01*
X103100Y117550D01*
X103100Y104850D01*
G54D28*
X249150Y114450D02*
X249150Y98500D01*
X242800Y92150D01*
X166600Y92150D01*
X153900Y104850D01*
G54D28*
X261850Y114450D02*
X261850Y101675D01*
X245975Y85800D01*
X122150Y85800D01*
X103100Y104850D01*
G54D28*
X236450Y114450D02*
X217475Y114450D01*
X217400Y114375D01*
G54D28*
X249150Y295350D02*
X249150Y270743D01*
X249943Y269950D01*
G54D28*
X249150Y295350D02*
X255500Y295350D01*
X261850Y289000D01*
X274550Y289000D01*
G54D28*
X249150Y295350D02*
X226925Y295350D01*
X217400Y304875D01*
G54D27*
X350750Y142950D02*
X141200Y142950D01*
X138025Y139775D01*
X138025Y130250D01*
X120525Y130250D01*
G54D27*
X128500Y104850D02*
X128500Y122275D01*
X128500Y130250D01*
G54D25*
X160212Y130250D02*
X179300Y130250D01*
X182475Y127075D01*
G54D25*
X96750Y130250D02*
X77700Y130250D01*
X74525Y127075D01*
G54D25*
X74525Y156443D02*
X182475Y156443D01*
X230893Y156443D01*
X236450Y162000D01*
X236450Y177875D01*
G54D25*
X141200Y142950D02*
X55475Y142950D01*
X42775Y155650D01*
X42775Y209625D01*
X55475Y222325D01*
X93575Y222325D01*
X103100Y231850D01*
X103100Y266775D01*
G54D28*
X153900Y266775D02*
X153900Y292175D01*
X141200Y304875D01*
X93575Y304875D01*
X80875Y292175D01*
X80875Y247725D01*
X68175Y235025D01*
X55475Y235025D01*
X33250Y212800D01*
X33250Y139775D01*
X93575Y79450D01*
X287250Y79450D01*
X299950Y92150D01*
X299950Y114375D01*
G54D28*
X236450Y206450D02*
X236450Y237723D01*
X235973Y238200D01*
G54D28*
X206605Y238200D02*
X160250Y238200D01*
X153900Y244550D01*
X153900Y266775D01*
G54D28*
X235973Y238200D02*
X235973Y254552D01*
X220575Y269950D01*
G54D28*
X249150Y315950D02*
X273000Y315950D01*
X274550Y314400D01*
X188825Y289000D02*
G54D23*
D03*
X103100Y289000D02*
G54D23*
D03*
G54D27*
X188825Y289000D02*
X188825Y317575D01*
X198350Y327100D01*
X238000Y327100D01*
X249150Y315950D01*
G54D27*
X103100Y289000D02*
X103100Y266775D01*
G54D29*
X201525Y57225D02*
X201525Y64725D01*
G54D29*
X201525Y63058D02*
X202858Y64725D01*
X204192Y64725D01*
G54D29*
X212859Y58058D02*
X211792Y57225D01*
X210459Y57225D01*
X209126Y58058D01*
X208859Y59725D01*
X208859Y62558D01*
X209526Y64225D01*
X210859Y64725D01*
X212192Y64225D01*
X212859Y63058D01*
X212859Y61392D01*
X208859Y61392D01*
G54D29*
X217526Y64725D02*
X220193Y57225D01*
X222859Y64725D01*
G54D29*
X228059Y57225D02*
X227526Y57225D01*
X227526Y57892D01*
X228059Y57892D01*
X228059Y57225D01*
X227526Y57225D01*
G54D29*
X232726Y57225D02*
X233259Y57225D01*
X233259Y57892D01*
X232726Y57892D01*
X232726Y57225D01*
G54D29*
X233259Y67225D02*
X232726Y67225D01*
X232726Y67892D01*
X233259Y67892D01*
X233259Y67225D01*
G54D29*
X237926Y65558D02*
X241259Y70558D01*
X241259Y57225D01*
G54D29*
X246459Y57225D02*
X245926Y57225D01*
X245926Y57892D01*
X246459Y57892D01*
X246459Y57225D01*
X245926Y57225D01*
G54D29*
X256459Y68058D02*
X256459Y59725D01*
X255793Y58058D01*
X254459Y57225D01*
X253126Y57225D01*
X251793Y58058D01*
X251126Y59725D01*
X251126Y68058D01*
X251793Y69725D01*
X253126Y70558D01*
X254459Y70558D01*
X255793Y69725D01*
X256459Y68058D01*
G54D29*
X267926Y70558D02*
X266593Y69725D01*
X265926Y68058D01*
X265926Y59725D01*
X266593Y58058D01*
X267926Y57225D01*
G54D29*
X272593Y68058D02*
X273260Y69725D01*
X274593Y70558D01*
X275926Y70558D01*
X277260Y69725D01*
X277926Y68058D01*
X277926Y66392D01*
X277260Y64725D01*
X275926Y63892D01*
X277260Y63058D01*
X277926Y61392D01*
X277926Y59725D01*
X277260Y58058D01*
X275926Y57225D01*
X274593Y57225D01*
X273260Y58058D01*
X272593Y59725D01*
G54D29*
X282593Y65558D02*
X285926Y70558D01*
X285926Y57225D01*
G54D29*
X290593Y57225D02*
X295926Y70558D01*
G54D29*
X305926Y68058D02*
X305926Y59725D01*
X305260Y58058D01*
X303926Y57225D01*
X302593Y57225D01*
X301260Y58058D01*
X300593Y59725D01*
X300593Y68058D01*
X301260Y69725D01*
X302593Y70558D01*
X303926Y70558D01*
X305260Y69725D01*
X305926Y68058D01*
G54D29*
X310593Y68058D02*
X311260Y69725D01*
X312593Y70558D01*
X313926Y70558D01*
X315260Y69725D01*
X315926Y68058D01*
X315926Y66392D01*
X315260Y64725D01*
X313926Y63892D01*
X315260Y63058D01*
X315926Y61392D01*
X315926Y59725D01*
X315260Y58058D01*
X313926Y57225D01*
X312593Y57225D01*
X311260Y58058D01*
X310593Y59725D01*
G54D29*
X320593Y57225D02*
X325926Y70558D01*
G54D29*
X335926Y57225D02*
X330593Y57225D01*
X330593Y58058D01*
X331260Y59725D01*
X335260Y64725D01*
X335926Y66392D01*
X335926Y68058D01*
X335260Y69725D01*
X333926Y70558D01*
X332593Y70558D01*
X331260Y69725D01*
X330593Y68058D01*
G54D29*
X345926Y68058D02*
X345926Y59725D01*
X345260Y58058D01*
X343926Y57225D01*
X342593Y57225D01*
X341260Y58058D01*
X340593Y59725D01*
X340593Y68058D01*
X341260Y69725D01*
X342593Y70558D01*
X343926Y70558D01*
X345260Y69725D01*
X345926Y68058D01*
G54D29*
X350593Y65558D02*
X353926Y70558D01*
X353926Y57225D01*
G54D29*
X358593Y59725D02*
X359260Y58058D01*
X360593Y57225D01*
X361926Y57225D01*
X363260Y58058D01*
X363926Y59725D01*
X363926Y63892D01*
X363926Y64725D01*
X361926Y63058D01*
X360593Y63058D01*
X359260Y63892D01*
X358593Y65558D01*
X358593Y68058D01*
X359260Y69725D01*
X360593Y70558D01*
X361926Y70558D01*
X363260Y69725D01*
X363926Y68058D01*
X363926Y63892D01*
G54D29*
X368593Y70558D02*
X369926Y69725D01*
X370593Y68058D01*
X370593Y59725D01*
X369926Y58058D01*
X368593Y57225D01*
G54D29*
X93575Y59725D02*
X94242Y58058D01*
X95575Y57225D01*
X96908Y57225D01*
X98242Y58058D01*
X98908Y59725D01*
X98908Y61392D01*
X98242Y63058D01*
X96908Y63892D01*
X95575Y63892D01*
X94242Y64725D01*
X93575Y66392D01*
X93575Y68058D01*
X94242Y69725D01*
X95575Y70558D01*
X96908Y70558D01*
X98242Y69725D01*
X98908Y68058D01*
G54D29*
X103575Y57225D02*
X103575Y70558D01*
X106908Y70558D01*
X108242Y69725D01*
X108908Y68058D01*
X108908Y66392D01*
X108242Y64725D01*
X106908Y63892D01*
X108242Y63058D01*
X108908Y61392D01*
X108908Y59725D01*
X108242Y58058D01*
X106908Y57225D01*
X103575Y57225D01*
G54D29*
X103575Y63892D02*
X106908Y63892D01*
G54D29*
X121042Y57225D02*
X121042Y70558D01*
G54D29*
X118375Y70558D02*
X123708Y70558D01*
G54D29*
X128375Y57225D02*
X128375Y64725D01*
G54D29*
X128375Y63058D02*
X129708Y64725D01*
X131042Y64725D01*
G54D29*
X135709Y57225D02*
X135709Y64725D01*
G54D29*
X135709Y67225D02*
X135709Y67225D01*
G54D29*
X140376Y57225D02*
X140376Y64725D01*
G54D29*
X140376Y63392D02*
X141709Y64725D01*
X143043Y64225D01*
X143709Y63058D01*
X143709Y57225D01*
G54D29*
X143709Y63392D02*
X145043Y64725D01*
X146376Y64225D01*
X147043Y63058D01*
X147043Y57225D01*
G54D29*
X151710Y57225D02*
X151710Y64725D01*
G54D29*
X151710Y63392D02*
X153043Y64725D01*
X154377Y64225D01*
X155043Y63058D01*
X155043Y57225D01*
G54D29*
X155043Y63392D02*
X156377Y64725D01*
X157710Y64225D01*
X158377Y63058D01*
X158377Y57225D01*
G54D29*
X167044Y58058D02*
X165977Y57225D01*
X164644Y57225D01*
X163311Y58058D01*
X163044Y59725D01*
X163044Y62558D01*
X163711Y64225D01*
X165044Y64725D01*
X166377Y64225D01*
X167044Y63058D01*
X167044Y61392D01*
X163044Y61392D01*
G54D29*
X171711Y57225D02*
X171711Y64725D01*
G54D29*
X171711Y63058D02*
X173044Y64725D01*
X174378Y64725D01*
G54D29*
X126658Y317575D02*
X126658Y330075D01*
X127325Y330908D01*
X127992Y330408D01*
G54D29*
X125325Y325075D02*
X127992Y325075D01*
G54D29*
X132659Y317575D02*
X132659Y330908D01*
G54D29*
X137326Y325075D02*
X139993Y317575D01*
X142659Y325075D01*
G54D29*
X139993Y317575D02*
X139326Y315075D01*
X138659Y314242D01*
X137993Y314242D01*
G54D29*
X150659Y324242D02*
X149326Y324242D01*
X147993Y325075D01*
X147326Y326742D01*
X147326Y328408D01*
X147993Y330075D01*
X149326Y330908D01*
X150659Y330908D01*
X151993Y330075D01*
X152659Y328408D01*
X152659Y326742D01*
X151993Y325075D01*
X150659Y324242D01*
X151993Y323408D01*
X152659Y321742D01*
X152659Y320075D01*
X151993Y318408D01*
X150659Y317575D01*
X149326Y317575D01*
X147993Y318408D01*
X147326Y320075D01*
X147326Y321742D01*
X147993Y323408D01*
X149326Y324242D01*
G54D29*
X157326Y317575D02*
X157326Y325075D01*
G54D29*
X157326Y323408D02*
X158659Y325075D01*
X159993Y325075D01*
X530800Y368900D02*
G54D30*
D03*
X530800Y78900D02*
G54D30*
D03*
X50800Y78900D02*
G54D30*
D03*
G54D31*
X560800Y398900D02*
X560800Y48900D01*
X20800Y48900D01*
X20800Y288900D01*
X70800Y338900D01*
X210800Y338900D01*
X270800Y398900D01*
X560800Y398900D01*
X338050Y377900D02*
G54D16*
D03*
X367418Y377900D02*
G54D16*
D03*
G36*
X262384Y331128D02*
X273698Y342441D01*
X258141Y357998D01*
X246827Y346684D01*
X262384Y331128D01*
G37*
G36*
X295675Y364418D02*
X306988Y375732D01*
X291432Y391288D01*
X280118Y379974D01*
X295675Y364418D01*
G37*
G54D25*
X366625Y342975D02*
X366625Y377423D01*
X366148Y377900D01*
G54D25*
X336780Y377900D02*
X293900Y377900D01*
X293878Y377922D01*
G54D25*
X249150Y315950D02*
X249150Y333194D01*
X260262Y344563D01*
M02*
